<svg xmlns="http://www.w3.org/2000/svg" viewBox="0 0 524.75 655.9375" x="0px" y="0px"><title>Sun</title><path d="M188.22,351.2c-81.92,0-148.58-66.65-148.58-148.58S106.3,54.05,188.22,54.05,336.79,120.7,336.79,202.62,270.14,351.2,188.22,351.2Zm0-273.66A125.08,125.08,0,1,0,313.3,202.62,125.22,125.22,0,0,0,188.22,77.54Z" transform="translate(73.91 59.75)"/><rect x="22.82" y="3.69" width="23.49" height="88.78" transform="translate(50.04 98.28) rotate(-45)"/><rect x="296.86" y="36.33" width="88.78" height="23.49" transform="translate(139.86 315.13) rotate(-45)"/><rect x="-9.82" y="346.3" width="88.78" height="23.49" transform="translate(-169.14 189.06) rotate(-45)"/><rect x="329.5" y="313.66" width="23.49" height="88.78" transform="translate(-79.32 405.92) rotate(-45)"/><rect y="250.63" width="86.15" height="23.49"/><rect x="438.6" y="250.63" width="86.15" height="23.49"/><rect x="250.63" y="438.6" width="23.49" height="86.15"/><rect x="250.63" width="23.49" height="86.14"/><text x="0" y="539.75" fill="#000000" font-size="5px" font-weight="bold" font-family="'Helvetica Neue', Helvetica, Arial-Unicode, Arial, Sans-serif">Created by safwan</text><text x="0" y="544.75" fill="#000000" font-size="5px" font-weight="bold" font-family="'Helvetica Neue', Helvetica, Arial-Unicode, Arial, Sans-serif">from the Noun Project</text></svg>