<?xml version="1.0" encoding="UTF-8"?>
<svg width="32px" height="32px" viewBox="0 0 32 32" version="1.1" xmlns="http://www.w3.org/2000/svg" xmlns:xlink="http://www.w3.org/1999/xlink">
    <!-- Generator: Sketch 51.3 (57544) - http://www.bohemiancoding.com/sketch -->
    <title>logo</title>
    <desc>Created with Sketch.</desc>
    <defs></defs>
    <g id="Page-1" stroke="none" stroke-width="1" fill="none" fill-rule="evenodd">
        <g id="logo" fill="#0D0900" fill-rule="nonzero">
            <path d="M31.99,32 L0.009,32 L0.009,0 L31.989,0 L26.117,6.01 L5.906,6.01 L5.906,25.99 L26.118,25.99 L31.99,32 Z M1.009,31 L29.614,31 L25.695,26.99 L4.906,26.99 L4.906,5.01 L25.696,5.01 L29.615,1 L1.009,1 L1.009,31 Z" id="Shape"></path>
            <g id="Group">
                <polygon id="Shape" points="30.803 31.5 0.51 31.5 0.51 0.5 30.803 0.5 25.907 5.51 5.406 5.51 5.406 26.49 25.907 26.49"></polygon>
                <path d="M31.99,32 L0.009,32 L0.009,0 L31.989,0 L26.117,6.01 L5.906,6.01 L5.906,25.99 L26.118,25.99 L31.99,32 Z M1.009,31 L29.614,31 L25.695,26.99 L4.906,26.99 L4.906,5.01 L25.696,5.01 L29.615,1 L1.009,1 L1.009,31 Z" id="Shape"></path>
            </g>
            <polygon id="Shape" points="31.635 32 0.365 32 0.365 0 31.635 0 26.581 5.172 5.419 5.172 5.419 26.829 26.582 26.829"></polygon>
            <polygon id="Shape" points="26.581 5.172 31.635 0 0.365 0 0.365 32 31.635 32 26.581 26.828 5.419 26.828 5.419 5.172"></polygon>
        </g>
    </g>
</svg>