<svg xmlns="http://www.w3.org/2000/svg" width="30" height="34"><path d="M 28.696 0 L 0 0 L 0 34 L 30 34 L 30 0 Z M 18.478 7.846 L 22.167 7.846 L 16.779 13.248 C 15.928 12.826 15.029 12.488 14.094 12.241 Z M 19.565 26.154 C 19.565 21.897 16.667 18.319 12.743 17.294 C 12.007 17.102 11.232 17 10.435 17 L 10.435 26.154 L 7.826 26.154 L 7.826 7.846 L 10.435 7.846 L 10.435 14.385 C 10.92 14.385 11.399 14.414 11.87 14.472 C 12.895 14.595 13.88 14.853 14.804 15.227 C 19.123 16.964 22.174 21.203 22.174 26.154 Z" fill="rgb(255,255,255)"></path></svg>